<svg width="4335" height="1199" xmlns="http://www.w3.org/2000/svg" xmlns:xlink="http://www.w3.org/1999/xlink" xml:space="preserve" overflow="hidden"><defs><filter id="fx0" x="-10%" y="-10%" width="120%" height="120%" filterUnits="userSpaceOnUse" primitiveUnits="userSpaceOnUse"><feComponentTransfer color-interpolation-filters="sRGB"><feFuncR type="discrete" tableValues="0 0"/><feFuncG type="discrete" tableValues="0 0"/><feFuncB type="discrete" tableValues="0 0"/><feFuncA type="linear" slope="0.4" intercept="0"/></feComponentTransfer><feGaussianBlur stdDeviation="4.68264 4.68264"/></filter><clipPath id="clip1"><rect x="-71" y="427" width="4335" height="1199"/></clipPath><clipPath id="clip2"><rect x="-2.5" y="-2.5" width="1297" height="386"/></clipPath><clipPath id="clip3"><rect x="0" y="0" width="1291" height="381"/></clipPath></defs><g clip-path="url(#clip1)" transform="translate(71 -427)"><path d="M-65.5002 1026.5 113.362 1026.5 116.227 1034.09C223.009 1281.29 486.963 1415.56 729.312 1336.89 814.135 1309.36 885.771 1259.16 940.538 1194.27L942.539 1191.68 967.282 1187.92C983.578 1184.54 999.83 1180.24 1015.99 1175 1032.14 1169.76 1047.82 1163.69 1063 1156.85L1098.5 1138.49 1094.56 1151.94C1019.32 1364.31 793.689 1518.5 527.034 1518.5 219.356 1518.5-33.7088 1313.22-64.1397 1050.15Z" stroke="#FCFF6E" stroke-width="9.16667" stroke-miterlimit="8" fill="#FCFF6E" fill-rule="evenodd"/><path d="M1337 588.5 1360.79 631.895C1390.87 694.383 1407.5 763.084 1407.5 835.199 1407.5 1123.66 1141.4 1357.5 813.146 1357.5 505.409 1357.5 252.297 1151.97 221.861 888.601L220.5 864.923 399.396 864.923 402.261 872.526C509.063 1120.01 773.067 1254.44 1015.46 1175.68 1241.7 1102.17 1374.15 867.303 1342.95 622.431Z" stroke="#FCFF6E" stroke-width="9.16667" stroke-miterlimit="8" fill="#FCFF6E" fill-rule="evenodd"/><g clip-path="url(#clip2)" filter="url(#fx0)" transform="matrix(2 0 0 2 1612 669)"><g clip-path="url(#clip3)"><path d="M906.821 139.422C887.386 139.422 871.046 145.927 857.801 158.936 844.557 171.946 837.229 189.344 835.819 211.13L975.237 211.13C973.357 190.127 968.027 174.375 959.25 163.874 945.771 147.573 928.294 139.422 906.821 139.422ZM509.579 110.269 551.898 110.269 551.898 359.953 509.579 359.953ZM1167.4 104.627C1186.99 104.627 1204.19 107.448 1219 113.09 1233.81 118.733 1244.75 126.374 1251.8 136.013 1258.85 145.653 1263.71 158.545 1266.38 174.689L1225 180.331C1223.12 167.479 1217.67 157.447 1208.66 150.237 1199.65 143.027 1186.91 139.422 1170.45 139.422 1151.02 139.422 1137.15 142.636 1128.84 149.062 1120.53 155.488 1116.38 163.012 1116.38 171.632 1116.38 177.118 1118.1 182.055 1121.55 186.444 1125 190.989 1130.41 194.751 1137.77 197.729 1142 199.296 1154.47 202.901 1175.16 208.544 1205.09 216.538 1225.98 223.081 1237.81 228.175 1249.64 233.269 1258.93 240.675 1265.67 250.393 1272.41 260.111 1275.78 272.18 1275.78 286.6 1275.78 300.706 1271.67 313.99 1263.44 326.45 1255.21 338.911 1243.34 348.55 1227.82 355.369 1212.3 362.187 1194.75 365.596 1175.16 365.596 1142.71 365.596 1117.98 358.856 1100.98 345.377 1083.97 331.897 1073.12 311.913 1068.42 285.424L1110.27 278.841C1112.62 295.612 1119.16 308.465 1129.9 317.399 1140.63 326.333 1155.64 330.8 1174.92 330.8 1194.36 330.8 1208.78 326.842 1218.18 318.927 1227.58 311.012 1232.29 301.725 1232.29 291.067 1232.29 281.506 1228.13 273.982 1219.83 268.496 1214.03 264.735 1199.61 259.954 1176.57 254.155 1145.53 246.318 1124.02 239.539 1112.03 233.818 1100.04 228.097 1090.95 220.182 1084.76 210.072 1078.57 199.963 1075.47 188.795 1075.47 176.569 1075.47 165.441 1078.02 155.135 1083.11 145.653 1088.2 136.17 1095.14 128.294 1103.92 122.024 1110.5 117.166 1119.47 113.051 1130.84 109.681 1142.2 106.311 1154.39 104.627 1167.4 104.627ZM906.351 104.627C939.736 104.627 967.009 115.99 988.168 138.717 1009.33 161.444 1019.91 193.419 1019.91 234.641 1019.91 237.149 1019.83 240.91 1019.67 245.926L833.468 245.926C835.035 273.355 842.794 294.358 856.743 308.935 870.693 323.512 888.091 330.8 908.937 330.8 924.454 330.8 937.699 326.725 948.67 318.574 959.642 310.424 968.341 297.415 974.767 279.546L1018.5 284.954C1011.6 310.502 998.826 330.33 980.175 344.436 961.523 358.543 937.699 365.596 908.702 365.596 872.182 365.596 843.225 354.35 821.83 331.858 800.435 309.366 789.738 277.822 789.738 237.227 789.738 195.221 800.553 162.62 822.182 139.422 843.812 116.225 871.868 104.627 906.351 104.627ZM721.536 104.627C735.799 104.627 750.297 109.172 765.031 118.263L750.454 157.526C740.109 151.413 729.765 148.357 719.42 148.357 710.172 148.357 701.865 151.139 694.499 156.703 687.132 162.267 681.881 169.986 678.746 179.861 674.044 194.908 671.693 211.365 671.693 229.233L671.693 359.953 629.374 359.953 629.374 110.269 667.461 110.269 667.461 148.121C677.179 130.41 686.152 118.733 694.381 113.09 702.61 107.448 711.661 104.627 721.536 104.627ZM509.579 15.2857 551.898 15.2857 551.898 63.953 509.579 63.953ZM15.4823 15.2857 62.2687 15.2857 114.698 241.224C120.34 264.891 125.199 288.402 129.274 311.756 138.052 274.923 143.224 253.685 144.791 248.042L210.386 15.2857 265.401 15.2857 314.774 189.735C327.156 232.995 336.09 273.669 341.576 311.756 345.965 289.97 351.686 264.97 358.739 236.757L412.814 15.2857 458.66 15.2857 364.147 359.953 320.181 359.953 247.533 97.3382C241.421 75.3949 237.816 61.9154 236.718 56.8997 233.113 72.7303 229.744 86.2098 226.609 97.3382L153.49 359.953 106.939 359.953Z" stroke="#FCFF6E" stroke-width="0.5" stroke-linejoin="round" stroke-miterlimit="10" fill="#FCFF6E" fill-rule="evenodd"/></g></g><path d="M3415.86 938.063C3376.99 938.063 3344.31 951.073 3317.82 977.091 3291.33 1003.11 3276.68 1037.91 3273.86 1081.48L3552.69 1081.48C3548.93 1039.47 3538.27 1007.97 3520.72 986.966 3493.76 954.364 3458.81 938.063 3415.86 938.063ZM2621.38 879.757 2706.02 879.757 2706.02 1379.12 2621.38 1379.12ZM3937.01 868.472C3976.2 868.472 4010.6 874.114 4040.22 885.399 4069.85 896.685 4091.71 911.967 4105.82 931.245 4119.93 950.524 4129.64 976.308 4134.97 1008.6L4052.21 1019.88C4048.45 994.176 4037.56 974.113 4019.53 959.693 4001.51 945.273 3976.04 938.063 3943.12 938.063 3904.25 938.063 3876.51 944.49 3859.9 957.342 3843.28 970.195 3834.98 985.242 3834.98 1002.48 3834.98 1013.45 3838.42 1023.33 3845.32 1032.11 3852.22 1041.2 3863.03 1048.72 3877.76 1054.68 3886.23 1057.81 3911.15 1065.02 3952.53 1076.31 4012.4 1092.29 4054.17 1105.38 4077.84 1115.57 4101.51 1125.76 4120.08 1140.57 4133.56 1160 4147.04 1179.44 4153.78 1203.58 4153.78 1232.42 4153.78 1260.63 4145.55 1287.2 4129.09 1312.12 4112.64 1337.04 4088.89 1356.32 4057.86 1369.96 4026.82 1383.59 3991.71 1390.41 3952.53 1390.41 3887.64 1390.41 3838.19 1376.93 3804.18 1349.97 3770.16 1323.01 3748.46 1283.04 3739.05 1230.07L3822.75 1216.9C3827.45 1250.44 3840.54 1276.15 3862.01 1294.02 3883.49 1311.88 3913.5 1320.82 3952.06 1320.82 3990.93 1320.82 4019.77 1312.9 4038.58 1297.07 4057.39 1281.24 4066.79 1262.67 4066.79 1241.35 4066.79 1222.23 4058.48 1207.18 4041.87 1196.21 4030.27 1188.69 4001.43 1179.13 3955.35 1167.53 3893.28 1151.85 3850.26 1138.3 3826.28 1126.85 3802.29 1115.41 3784.11 1099.58 3771.73 1079.36 3759.35 1059.14 3753.16 1036.81 3753.16 1012.36 3753.16 990.101 3758.25 969.49 3768.44 950.524 3778.63 931.559 3792.5 915.807 3810.05 903.268 3823.22 893.55 3841.17 885.321 3863.89 878.581 3886.62 871.842 3910.99 868.472 3937.01 868.472ZM3414.92 868.472C3481.69 868.472 3536.24 891.199 3578.56 936.653 3620.87 982.107 3642.03 1046.06 3642.03 1128.5 3642.03 1133.52 3641.88 1141.04 3641.56 1151.07L3269.15 1151.07C3272.29 1205.93 3287.81 1247.94 3315.71 1277.09 3343.6 1306.24 3378.4 1320.82 3420.09 1320.82 3451.13 1320.82 3477.62 1312.67 3499.56 1296.37 3521.5 1280.07 3538.9 1254.05 3551.75 1218.31L3639.21 1229.13C3625.42 1280.22 3599.87 1319.88 3562.57 1348.09 3525.26 1376.3 3477.62 1390.41 3419.62 1390.41 3346.58 1390.41 3288.67 1367.92 3245.88 1322.93 3203.09 1277.95 3181.69 1214.86 3181.69 1133.67 3181.69 1049.66 3203.32 984.458 3246.58 938.063 3289.84 891.669 3345.96 868.472 3414.92 868.472ZM3045.29 868.472C3073.82 868.472 3102.81 877.563 3132.28 895.744L3103.13 974.27C3082.44 962.044 3061.75 955.932 3041.06 955.932 3022.56 955.932 3005.95 961.496 2991.22 972.624 2976.48 983.753 2965.98 999.191 2959.71 1018.94 2950.31 1049.03 2945.6 1081.95 2945.6 1117.69L2945.6 1379.12 2860.97 1379.12 2860.97 879.757 2937.14 879.757 2937.14 955.461C2956.58 920.039 2974.52 896.685 2990.98 885.399 3007.44 874.114 3025.54 868.472 3045.29 868.472ZM2621.38 689.79 2706.02 689.79 2706.02 787.125 2621.38 787.125ZM1633.18 689.79 1726.76 689.79 1831.61 1141.67C1842.9 1189 1852.62 1236.02 1860.77 1282.73 1878.32 1209.06 1888.67 1166.59 1891.8 1155.3L2022.99 689.79 2133.02 689.79 2231.77 1038.69C2256.53 1125.21 2274.4 1206.56 2285.37 1282.73 2294.15 1239.16 2305.59 1189.16 2319.7 1132.73L2427.85 689.79 2519.54 689.79 2330.51 1379.12 2242.58 1379.12 2097.29 853.895C2085.06 810.008 2077.85 783.049 2075.66 773.018 2068.45 804.679 2061.71 831.638 2055.44 853.895L1909.2 1379.12 1816.1 1379.12Z" stroke="#FCFF6E" stroke-linejoin="round" stroke-miterlimit="10" fill="#FCFF6E" fill-rule="evenodd"/><text fill="#000000" fill-opacity="0" font-family="Arial,Arial_MSFontService,sans-serif" font-size="700.62" x="1633.18" y="1302.83">Wires</text></g></svg>
